<svg width="30" height="30" fill="none" xmlns="http://www.w3.org/2000/svg"><g clip-path="url('#clip0_22_27281')"><path d="M19.5 15a4.5 4.5 0 1 1-9 0c0-.256.027-.507.074-.75H9v5.996c0 .417.338.754.755.754h10.492a.755.755 0 0 0 .753-.754V14.25h-1.573c.046.243.073.494.073.75ZM15 18A3 3 0 1 0 15 12 3 3 0 0 0 15 18Zm3.6-6.15H20.4a.452.452 0 0 0 .451-.45V9.602a.452.452 0 0 0-.451-.452H18.6a.452.452 0 0 0-.451.452V11.4c.001.248.204.45.451.45ZM15 .6a14.4 14.4 0 1 0 0 28.8A14.4 14.4 0 0 0 15 .6Zm7.5 20.234c0 .916-.75 1.666-1.666 1.666H9.167c-.917 0-1.667-.75-1.667-1.666V9.167c0-.917.75-1.667 1.667-1.667h11.667c.916 0 1.666.75 1.666 1.667v11.667Z" fill="#fff"/></g><defs><clipPath id="clip0_22_27281"><path fill="#fff" d="M0 0h30v30H0z"/></clipPath></defs></svg>