<svg width="30" height="30" fill="none" xmlns="http://www.w3.org/2000/svg"><g clip-path="url('#clip0_22_27283')"><path d="M15 .6C7.047.6.6 7.047.6 15S7.047 29.4 15 29.4 29.4 22.953 29.4 15 22.953.6 15 .6Zm5.858 11.796c.006.123.007.246.007.366 0 3.75-2.851 8.072-8.068 8.072a8.002 8.002 0 0 1-4.347-1.275c.22.027.447.037.676.037a5.68 5.68 0 0 0 3.522-1.213A2.843 2.843 0 0 1 10 16.415c.425.08.862.063 1.28-.05a2.838 2.838 0 0 1-2.276-2.78v-.035c.383.211.82.34 1.286.355a2.835 2.835 0 0 1-.878-3.789 8.064 8.064 0 0 0 5.846 2.966 2.836 2.836 0 0 1 4.833-2.588 5.695 5.695 0 0 0 1.8-.688 2.85 2.85 0 0 1-1.247 1.57 5.698 5.698 0 0 0 1.63-.448c-.381.57-.86 1.067-1.415 1.468Z" fill="#fff"/></g><defs><clipPath id="clip0_22_27283"><path fill="#fff" d="M0 0h30v30H0z"/></clipPath></defs></svg>