<svg width="174" height="33" fill="none" xmlns="http://www.w3.org/2000/svg"><path d="M130.082 8.034c1.365 0 2.605.173 3.719.52 1.114.347 2.055.795 2.821 1.345.479.335.857.706 1.132 1.112.276.407.414.933.414 1.579v12.556l-.006.341c-.04 1.124-.278 2.104-.713 2.941a6.597 6.597 0 0 1-1.959 2.296c-.826.61-1.797 1.058-2.911 1.345-1.114.287-2.306.431-3.576.431-2.18 0-3.893-.293-5.139-.879-1.246-.586-1.869-1.537-1.869-2.852 0-.55.114-1.034.342-1.453.227-.418.485-.735.773-.95.694.382 1.479.705 2.353.968a9.37 9.37 0 0 0 2.714.395c1.294 0 2.324-.215 3.09-.646.767-.43 1.15-1.124 1.15-2.08v-.575l-.273.112c-.928.356-2.035.534-3.32.534a9.669 9.669 0 0 1-3.073-.484 6.883 6.883 0 0 1-2.552-1.507c-.73-.682-1.317-1.56-1.761-2.637-.443-1.076-.664-2.356-.664-3.838 0-1.46.233-2.727.7-3.803.468-1.076 1.114-1.967 1.941-2.673.827-.705 1.809-1.231 2.947-1.578 1.138-.347 2.378-.52 3.72-.52Zm-96.736.557c2.137 0 3.885.478 5.245 1.435 1.36.957 2.165 2.648 2.416 5.072H36.44l-.043-.268a3.9 3.9 0 0 0-.598-1.448c-.5-.687-1.276-1.03-2.329-1.03-1.5 0-2.527.743-3.08 2.231-.291.79-.437 1.842-.437 3.153 0 1.248.145 2.252.437 3.011.532 1.416 1.532 2.123 3.002 2.123 1.042 0 1.782-.281 2.22-.843.438-.562.703-1.29.797-2.185h4.55l-.031.311c-.151 1.238-.63 2.414-1.439 3.528-1.397 1.946-3.465 2.919-6.207 2.919-2.74 0-4.757-.812-6.05-2.435-1.292-1.623-1.938-3.73-1.938-6.32 0-2.924.714-5.197 2.141-6.82 1.428-1.623 3.398-2.434 5.91-2.434Zm41.405-.047c1.417 0 2.694.265 3.83.796 1.136.53 2.074 1.368 2.814 2.512.667 1.01 1.1 2.18 1.298 3.511.115.78.161 1.904.14 3.371H71.172l.016.296c.111 1.55.643 2.647 1.594 3.294.615.426 1.355.64 2.22.64.917 0 1.662-.26 2.236-.78.312-.282.589-.672.828-1.171h4.55l-.034.233c-.164.934-.68 1.88-1.545 2.841-1.46 1.654-3.502 2.482-6.129 2.482-2.167 0-4.08-.697-5.737-2.092-1.657-1.394-2.486-3.662-2.486-6.804 0-2.944.748-5.202 2.243-6.773 1.496-1.57 3.437-2.356 5.824-2.356Zm31.285-6.25c.527 0 1 .036 1.419.107.419.072.773.216 1.06.43.288.216.509.51.665.88.156.37.234.855.234 1.453V25.97l-.121.021c-.257.046-.606.104-1.047.176a9.727 9.727 0 0 1-1.563.126 8.468 8.468 0 0 1-1.42-.108c-.419-.072-.773-.215-1.06-.43a2.07 2.07 0 0 1-.665-.88c-.156-.37-.234-.854-.234-1.452V2.617l.121-.022c.257-.045.606-.104 1.047-.176a9.74 9.74 0 0 1 1.564-.125Zm9.183 6.206c.528 0 1.001.036 1.42.108.419.071.773.215 1.06.43.288.215.509.508.665.879.156.37.234.855.234 1.453v14.6l-.121.023c-.257.045-.606.103-1.047.175a9.74 9.74 0 0 1-1.564.126c-.527 0-1-.036-1.419-.108-.419-.072-.773-.215-1.06-.43a2.061 2.061 0 0 1-.665-.88c-.156-.37-.234-.854-.234-1.452V8.823l.121-.022c.257-.045.606-.104 1.047-.175a9.726 9.726 0 0 1 1.563-.126Zm28.611-6.206c.527 0 1 .036 1.419.107.419.072.773.216 1.06.43.288.216.509.51.665.88.156.37.234.855.234 1.453v3.515l.124-.045c.308-.109.74-.231 1.295-.367a8.845 8.845 0 0 1 2.103-.233c2.372 0 4.222.592 5.552 1.775 1.33 1.184 1.995 2.948 1.995 5.292v10.87l-.111.03a9.84 9.84 0 0 1-1.021.185c-.516.072-1.049.108-1.6.108-.527 0-1-.036-1.419-.108-.419-.072-.773-.215-1.06-.43a2.061 2.061 0 0 1-.665-.88c-.156-.37-.234-.854-.234-1.452V15.46l-.004-.221c-.035-.864-.279-1.478-.733-1.842-.491-.395-1.096-.592-1.814-.592-.48 0-.935.06-1.366.18-.431.119-.779.262-1.042.43V25.97l-.111.03a9.84 9.84 0 0 1-1.021.185c-.515.072-1.049.108-1.6.108-.527 0-1-.036-1.419-.108-.419-.072-.773-.215-1.06-.43a2.07 2.07 0 0 1-.665-.88c-.156-.37-.234-.854-.234-1.452V2.617l.121-.022c.257-.045.606-.104 1.047-.176a9.73 9.73 0 0 1 1.564-.125Zm-43.025 1.973.082.139c.135.244.257.55.367.92.132.442.198.902.198 1.38 0 .933-.198 1.597-.593 1.991-.395.395-.928.592-1.6.592h-7.546v4.054h7.87l.093.139c.152.242.282.543.392.901.132.43.198.885.198 1.364 0 .909-.198 1.56-.593 1.955-.395.394-.928.592-1.6.592h-6.288v7.57l-.123.03c-.262.062-.635.123-1.117.184-.563.072-1.12.108-1.671.108a7.499 7.499 0 0 1-1.456-.125 2.587 2.587 0 0 1-1.06-.449 1.937 1.937 0 0 1-.647-.897c-.144-.382-.216-.885-.216-1.506V7.603l.007-.252c.045-.91.343-1.64.892-2.187.599-.598 1.413-.897 2.444-.897h11.967ZM16.337 3.035v4.042H4.784v5.29h10.115v3.995H4.784v9.645H0V3.035h16.337Zm6.527 5.961v17.01h-4.518V8.997h4.518Zm24.622-5.914v12.39l5.55-6.398h5.519l-5.956 6.508 6.19 10.425h-5.377l-4.08-7.273-1.846 1.92v5.353H43.11V3.082h4.377Zm17.111-.078v23.003h-4.455V3.004h4.455Zm94.012 1.115c.747-.224 2.022-.274 3.514.385 1.506.665 2.446 1.806 2.819 3.422l8.086.686c.1.006.199.026.298.06.149.053.229.126.296.183.164.14.217.25.295.443.139.345.097.752-.084 1.03-.292.45-.749.74-1.372.872l-6.527 1.385 1.152 5.411c.132.622.424 1.022.875 1.2.451.18 1.035.193 1.753.04a7.374 7.374 0 0 0 1.094-.325c.37-.141.689-.29.956-.446.271.217.519.47.743.76.224.29.385.66.481 1.115.358 1.678-2.288 3.263-4.023 3.575-1.606.288-4.071.527-5.48-3.158-1.409-3.684-3.622-9.86-5.311-15.008-.146-.444-.236-.88-.079-1.24.085-.195.146-.279.514-.39Zm-28.24 8.686c-1.174 0-2.054.329-2.641.986-.587.658-.881 1.597-.881 2.817 0 1.387.294 2.385.881 2.995.587.61 1.335.915 2.246.915.982 0 1.761-.227 2.336-.682v-6.6l-.11-.058a4.292 4.292 0 0 0-.627-.23c-.323-.095-.725-.143-1.204-.143Zm-55.618-.594c-1.032 0-1.832.323-2.4.968-.568.645-.925 1.519-1.07 2.621h6.925c-.073-1.175-.43-2.067-1.07-2.676-.642-.609-1.437-.913-2.385-.913ZM22.864 2.863v4.105h-4.518V2.863h4.518ZM115.543.5c1.006 0 1.815.31 2.426.933.611.622.916 1.387.916 2.296 0 .909-.305 1.674-.916 2.296-.611.621-1.42.932-2.426.932-1.006 0-1.815-.31-2.426-.932-.611-.622-.916-1.387-.916-2.296 0-.91.305-1.674.916-2.296.611-.622 1.42-.933 2.426-.933Z" fill="url('#paint0_linear_22_27309')"/><defs><linearGradient id="paint0_linear_22_27309" x1="161.366" y1="16.119" x2="1.604" y2="32.41" gradientUnits="userSpaceOnUse"><stop stop-color="#299BD8"/><stop offset="1" stop-color="#1262AF"/></linearGradient></defs></svg>