<svg width="119" height="24" fill="none" xmlns="http://www.w3.org/2000/svg"><path stroke="#CCC" stroke-dasharray="3 3" d="M5.017 11.832h104.125"/><path d="M57.889 21.75h-1.373a.89.89 0 0 1-.395-.091.8.8 0 0 1-.299-.253.69.69 0 0 1-.058-.716l3.325-6.667-4.992-.101-1.821 2.005c-.347.396-.624.573-1.33.573h-.925a.989.989 0 0 1-.424-.081.898.898 0 0 1-.334-.25c-.123-.15-.244-.405-.126-.77l1.022-3.327a.794.794 0 0 1 .028-.074v-.007a.645.645 0 0 1-.028-.075l-1.023-3.35c-.11-.356.01-.605.132-.752a.855.855 0 0 1 .31-.233.941.941 0 0 1 .391-.081h.976c.528 0 1.04.215 1.341.563l1.783 1.97 5.02-.067-3.324-6.656a.69.69 0 0 1 .058-.716.8.8 0 0 1 .298-.252.891.891 0 0 1 .395-.092h1.388c.193.004.383.047.556.126.173.08.324.194.442.333l6.45 7.125 2.98-.07c.217-.012.822-.015.962-.015 2.85.001 4.552.842 4.552 2.251 0 .443-.195 1.266-1.5 1.789-.77.31-1.797.466-3.053.466-.139 0-.742-.004-.963-.015l-2.98-.072-6.465 7.125c-.118.14-.268.252-.44.332-.173.079-.363.122-.556.125Z" fill="#1262AE"/><path d="M9.305 12.332c0 2.204-1.798 4-4.027 4-2.23 0-4.028-1.796-4.028-4 0-2.204 1.798-4 4.028-4 2.23 0 4.027 1.796 4.027 4ZM117.25 11.915c0 2.204-1.798 4-4.028 4-2.229 0-4.027-1.796-4.027-4 0-2.204 1.798-4 4.027-4 2.23 0 4.028 1.796 4.028 4Z" fill="#fff" stroke="#1262AE" stroke-width="2"/></svg>