<svg width="45" height="39" fill="none" xmlns="http://www.w3.org/2000/svg"><path d="M33.898 11.003c-.315-.86-1.197-1.473-2.237-1.473h-3.94V8.07c0-.802-.71-1.458-1.576-1.458H19.84c-.867 0-1.576.656-1.576 1.458V9.53h-3.94c-1.04 0-1.906.612-2.237 1.473L8.983 19.27c-.11.307-.173.627-.173.963v10.441c0 1.211 1.056 2.188 2.364 2.188 1.308 0 2.363-.977 2.363-2.188v-.729H32.45v.73c0 1.195 1.055 2.187 2.363 2.187 1.293 0 2.364-.977 2.364-2.188V20.234c0-.321-.063-.656-.173-.963l-3.105-8.268ZM14.325 25.57c-1.308 0-2.364-.977-2.364-2.187s1.056-2.188 2.364-2.188c1.308 0 2.364.977 2.364 2.188 0 1.21-1.056 2.187-2.364 2.187Zm17.336 0c-1.309 0-2.364-.977-2.364-2.187s1.055-2.188 2.364-2.188c1.308 0 2.363.977 2.363 2.188 0 1.21-1.055 2.187-2.363 2.187Zm-19.7-7.291 2.364-6.563h17.336l2.363 6.563H11.961Z" fill="#fff"/></svg>