<svg width="46" height="39" fill="none" xmlns="http://www.w3.org/2000/svg"><path d="M10.232 26.946c0 1.467.656 2.784 1.683 3.7v2.134c0 1.383 1.127 2.5 2.523 2.5a2.509 2.509 0 0 0 2.524-2.5v-.834H30.42v.834c0 1.366 1.127 2.5 2.523 2.5 1.38 0 2.524-1.117 2.524-2.5v-2.134c1.026-.916 1.682-2.233 1.682-3.7V10.28c0-5.834-6.023-6.667-13.459-6.667s-13.459.833-13.459 6.667v16.666Zm5.889 1.667a2.508 2.508 0 0 1-2.524-2.5c0-1.383 1.127-2.5 2.524-2.5a2.509 2.509 0 0 1 2.523 2.5c0 1.383-1.127 2.5-2.523 2.5Zm15.14 0a2.508 2.508 0 0 1-2.523-2.5c0-1.383 1.127-2.5 2.524-2.5a2.509 2.509 0 0 1 2.523 2.5c0 1.383-1.127 2.5-2.523 2.5Zm2.524-10H13.597V10.28h20.188v8.333Z" fill="#fff"/></svg>