<svg width="45" height="39" fill="none" xmlns="http://www.w3.org/2000/svg"><path d="M32.557 31.9c-.055-1.173-.128-2.34-.186-3.505-.188-3.643-.173-7.34-.37-11.001-.196-3.634-.08-7.27-.183-10.904-.021-.755.012-2.246-.77-2.677-1.68-.925-2.678 1.598-3.106 2.625-.77 1.864-1.216 3.825-1.767 5.756-.469 1.653-1.003 3.3-1.184 5.012-.135 1.285-.122 2.722.549 3.88.337.581.92.977 1.582 1.144.689.177 1.476-.054 2.13.257a.83.83 0 0 1 .384.42c.211.551.011 1.386-.055 1.954-.21 1.828-.432 3.675-.53 5.513-.06 1.111-.124 2.534.548 3.502.412.588 1.247 1.137 2 .845 1.126-.43 1.005-1.887.958-2.82ZM18.23 4.624c-.323.13-.2 1.287-.215 1.643-.021.638.022 1.484-.055 2.311a.103.103 0 0 1-.002.018c-.007.058-.012.12-.022.185-.01.063-.02.124-.028.187-.07.404-.2.882-.449 1.11-.282.263-.913.208-1.133-.102-.358-.504-.332-1.63-.353-1.663a50.424 50.424 0 0 0-.209-3.204c-.01-.08-.025-.561-.464-.613-.205-.022-.42.153-.49.472-.207.94-.4 2.735-.412 3.017a1.04 1.04 0 0 0-.004.086v.008c-.002.058-.072 1.464-.428 1.949-.185.254-.668.454-1.148.185-.191-.108-.322-.317-.414-.54-.502-1.562-.052-3.282.013-4.102.018-.23.227-1-.238-.974-.702.038-1.607 3.026-1.77 3.71-.396 1.704-.456 3.525.234 5.168a3.728 3.728 0 0 0 2.064 2.017c.412.158.869.273 1.352.34-.174 3.873-.371 7.915-.551 10.164-.139 1.693-.302 3.404-.28 5.104.013 1.016.002 2.227.669 3.078.697.89 2.168.48 2.565-.57.446-1.185.316-2.566.164-4.742-.152-2.178-.323-5.15-.418-6.748a119.793 119.793 0 0 1-.2-6.288c1.239-.177 2.394-.709 3.04-1.686.284-.428.471-.905.599-1.397.195-.744.29-1.56.248-2.328-.043-.707-.623-6.212-1.665-5.795Z" fill="#fff"/></svg>