<svg width="46" height="39" fill="none" xmlns="http://www.w3.org/2000/svg"><path d="M27.58 5.632a3.53 3.53 0 0 0-2.485-1.019 3.53 3.53 0 0 0-2.483 1.02L7.183 20.916a3.479 3.479 0 0 0-1.03 2.461 3.453 3.453 0 0 0 1.03 2.462l1.83 1.811c.797.791 1.916.65 2.593.251a1.967 1.967 0 0 1 2.377.296 1.92 1.92 0 0 1 .298 2.355c-.402.67-.545 1.778.253 2.567l1.831 1.814a3.515 3.515 0 0 0 2.485 1.02 3.543 3.543 0 0 0 2.485-1.02L36.76 19.652a3.479 3.479 0 0 0 1.03-2.462 3.452 3.452 0 0 0-1.03-2.461l-1.828-1.813c-.797-.79-1.918-.65-2.594-.251a1.967 1.967 0 0 1-2.377-.295 1.92 1.92 0 0 1-.298-2.355c.403-.67.545-1.78-.253-2.568l-1.83-1.815h-.002Z" fill="#fff"/></svg>