<svg width="45" height="39" fill="none" xmlns="http://www.w3.org/2000/svg"><path d="M32.692 7.613H11.805c-1.44 0-2.611 1.16-2.611 2.587v18.105c0 1.427 1.17 2.587 2.61 2.587h20.888c1.44 0 2.61-1.16 2.61-2.587V10.2c0-1.427-1.17-2.587-2.61-2.587Zm.001 7.76c-.001 0-.001 0 0 0h-.607L28.604 10.2h4.088l.001 5.173Zm-5.876 7.76-7.18 3.88v-7.76l7.18 3.88Zm-1.258-7.76L22.077 10.2h3.39l3.48 5.173H25.56Zm-3.139 0h-3.389L15.55 10.2h3.389l3.481 5.173ZM11.804 10.2h.607l3.482 5.173h-4.088V10.2Z" fill="#fff"/></svg>