<svg width="174" height="33" fill="none" xmlns="http://www.w3.org/2000/svg"><g clip-path="url('#clip0_22_27275')"><path d="M129.851 8.059c1.363 0 2.601.173 3.713.52 1.112.347 2.051.795 2.816 1.345.478.335.855.706 1.13 1.113.275.406.413.932.413 1.578v12.556l-.006.341c-.04 1.124-.277 2.105-.712 2.942a6.595 6.595 0 0 1-1.955 2.296c-.825.61-1.794 1.058-2.906 1.345-1.112.287-2.302.43-3.569.43-2.177 0-3.887-.293-5.13-.878-1.244-.586-1.866-1.537-1.866-2.853 0-.55.114-1.034.341-1.453.227-.418.484-.735.771-.95a12.07 12.07 0 0 0 2.35.969 9.337 9.337 0 0 0 2.709.394c1.291 0 2.319-.215 3.085-.646.765-.43 1.148-1.124 1.148-2.08v-.574l-.273.112c-.927.356-2.032.533-3.315.533a9.639 9.639 0 0 1-3.067-.484 6.855 6.855 0 0 1-2.547-1.507c-.73-.681-1.316-1.56-1.758-2.636-.442-1.077-.664-2.356-.664-3.839 0-1.459.234-2.726.7-3.803.466-1.076 1.112-1.967 1.937-2.672.825-.706 1.806-1.232 2.942-1.579 1.136-.347 2.374-.52 3.713-.52Zm-96.564.557c2.133 0 3.878.479 5.236 1.436 1.357.957 2.161 2.648 2.41 5.072h-4.556l-.044-.269a3.903 3.903 0 0 0-.596-1.448c-.5-.687-1.274-1.03-2.325-1.03-1.498 0-2.523.744-3.075 2.232-.29.79-.437 1.841-.437 3.152 0 1.248.146 2.252.437 3.012.531 1.415 1.53 2.122 2.997 2.122 1.04 0 1.779-.28 2.216-.842.437-.562.702-1.29.796-2.185h4.541l-.03.31c-.152 1.239-.63 2.415-1.437 3.529-1.394 1.945-3.46 2.918-6.196 2.918-2.736 0-4.749-.811-6.039-2.434-1.29-1.623-1.935-3.73-1.935-6.32 0-2.924.713-5.197 2.138-6.82 1.425-1.624 3.392-2.435 5.899-2.435Zm41.331-.047c1.415 0 2.69.265 3.824.796 1.134.53 2.07 1.368 2.809 2.513.666 1.009 1.098 2.18 1.295 3.51.115.781.161 1.905.14 3.372H71.046l.016.296c.11 1.549.641 2.647 1.591 3.293.614.427 1.353.64 2.216.64.916 0 1.66-.26 2.232-.78.312-.281.588-.671.827-1.17h4.541l-.034.232c-.163.934-.678 1.881-1.542 2.842-1.456 1.654-3.496 2.48-6.117 2.48-2.165 0-4.074-.696-5.728-2.09s-2.481-3.662-2.481-6.804c0-2.945.746-5.202 2.24-6.773 1.492-1.571 3.43-2.357 5.813-2.357Zm31.23-6.25c.526 0 .998.036 1.417.108.418.071.771.215 1.058.43.287.215.508.508.664.88.155.37.233.854.233 1.452v20.807l-.121.022a78.97 78.97 0 0 1-1.045.176 9.703 9.703 0 0 1-1.561.125c-.526 0-.998-.036-1.417-.107a2.417 2.417 0 0 1-1.058-.431 2.076 2.076 0 0 1-.664-.879c-.155-.37-.233-.855-.233-1.453V2.642l.121-.022c.256-.045.604-.104 1.045-.175a9.693 9.693 0 0 1 1.561-.126Zm9.167 6.206c.526 0 .999.036 1.417.108a2.41 2.41 0 0 1 1.058.43c.287.216.509.509.664.88.156.37.233.854.233 1.452v14.601l-.12.022a79.62 79.62 0 0 1-1.046.176 9.69 9.69 0 0 1-1.56.125 8.44 8.44 0 0 1-1.417-.107 2.412 2.412 0 0 1-1.058-.431 2.068 2.068 0 0 1-.664-.879c-.156-.37-.233-.855-.233-1.453V8.85l.12-.022a79.21 79.21 0 0 1 1.046-.176 9.69 9.69 0 0 1 1.56-.126Zm28.559-6.206c.527 0 .999.036 1.417.108.419.071.772.215 1.059.43.287.215.508.508.663.88.156.37.234.854.234 1.452v3.516l.124-.046c.307-.108.738-.23 1.293-.367a8.802 8.802 0 0 1 2.098-.233c2.368 0 4.216.592 5.543 1.776 1.327 1.184 1.991 2.947 1.991 5.291v10.87l-.111.031a9.734 9.734 0 0 1-1.019.184c-.514.072-1.046.108-1.596.108-.527 0-.999-.036-1.418-.107a2.417 2.417 0 0 1-1.058-.431 2.066 2.066 0 0 1-.663-.879c-.156-.37-.234-.855-.234-1.453v-7.964l-.004-.221c-.035-.864-.279-1.477-.731-1.842-.49-.394-1.094-.592-1.812-.592-.478 0-.933.06-1.363.18-.43.12-.777.263-1.04.43v12.556l-.111.031a9.784 9.784 0 0 1-1.019.184 11.57 11.57 0 0 1-1.597.108c-.526 0-.998-.036-1.417-.107a2.417 2.417 0 0 1-1.058-.431 2.076 2.076 0 0 1-.664-.879c-.155-.37-.233-.855-.233-1.453V2.642l.12-.022a82.15 82.15 0 0 1 1.046-.175 9.69 9.69 0 0 1 1.56-.126Zm-42.948 1.973.082.14c.135.243.257.55.367.918.131.443.197.903.197 1.382 0 .932-.197 1.596-.592 1.99-.395.395-.927.593-1.596.593H91.55v4.053h7.856l.094.139c.15.242.281.543.39.902.132.43.198.885.198 1.363 0 .909-.197 1.56-.592 1.955-.394.395-.927.592-1.596.592h-6.278v7.57l-.122.03a11.66 11.66 0 0 1-1.116.185c-.562.072-1.118.108-1.668.108-.55 0-1.034-.042-1.453-.126a2.582 2.582 0 0 1-1.058-.448 1.937 1.937 0 0 1-.646-.897c-.144-.383-.215-.885-.215-1.507V7.629l.006-.253c.046-.91.343-1.639.89-2.187.599-.598 1.412-.897 2.44-.897h11.946ZM16.308 3.06v4.042H4.775v5.29h10.097v3.996H4.775v9.644H0V3.06h16.308Zm6.515 5.962v17.01h-4.51V9.022h4.51Zm24.58-5.915v12.391l5.54-6.398h5.508l-5.946 6.507 6.18 10.425h-5.368l-4.073-7.272-1.842 1.92v5.352h-4.37V3.107h4.37Zm17.08-.078v23.003h-4.448V3.03h4.448Zm93.845 1.116c.746-.225 2.018-.274 3.508.384 1.503.665 2.441 1.806 2.813 3.422l8.072.686c.1.006.199.026.298.06.148.053.228.126.295.184.164.14.217.248.295.443.139.345.097.75-.084 1.03-.292.449-.748.739-1.369.871l-6.517 1.385 1.151 5.412c.132.62.423 1.021.873 1.2.45.18 1.033.192 1.75.04a7.316 7.316 0 0 0 1.092-.326c.37-.14.688-.29.954-.446.271.217.518.47.742.76.224.29.384.661.481 1.115.356 1.678-2.285 3.264-4.016 3.575-1.604.288-4.064.527-5.471-3.157-1.406-3.685-3.615-9.861-5.301-15.009-.146-.444-.236-.88-.08-1.24.085-.195.146-.279.514-.39Zm-28.19 8.685c-1.172 0-2.051.33-2.637.987-.586.658-.879 1.596-.879 2.816 0 1.387.293 2.386.879 2.995.586.61 1.333.915 2.242.915.981 0 1.758-.227 2.332-.681V13.26l-.11-.058a4.3 4.3 0 0 0-.625-.23c-.323-.095-.724-.143-1.202-.143Zm-55.52-.594c-1.03 0-1.828.323-2.395.968s-.923 1.519-1.07 2.622h6.914c-.072-1.176-.429-2.068-1.069-2.677-.64-.608-1.433-.912-2.38-.912ZM22.823 2.89v4.104h-4.51V2.889h4.51ZM115.338.525c1.004 0 1.812.311 2.422.933.609.622.914 1.387.914 2.296 0 .909-.305 1.674-.914 2.296-.61.622-1.418.933-2.422.933-1.004 0-1.812-.311-2.422-.933-.609-.622-.914-1.387-.914-2.296 0-.909.305-1.674.914-2.296.61-.622 1.418-.933 2.422-.933Z" fill="#fff"/></g><defs><clipPath id="clip0_22_27275"><path fill="#fff" d="M0 0h174v33H0z"/></clipPath></defs></svg>