<svg width="24" height="25" fill="none" xmlns="http://www.w3.org/2000/svg"><path d="M21.673 19.053A9.598 9.598 0 0 1 20 17.1a8.42 8.42 0 0 1-.9-3.207V10.6a7.207 7.207 0 0 0-6.294-7.167v-.86a.89.89 0 1 0-1.78 0v.873a7.207 7.207 0 0 0-6.22 7.154v3.293a8.42 8.42 0 0 1-.9 3.207 9.6 9.6 0 0 1-1.646 1.953.667.667 0 0 0-.227.5v.907a.667.667 0 0 0 .667.666h18.533a.667.667 0 0 0 .667-.666v-.907a.667.667 0 0 0-.227-.5Zm-18.253.74c.62-.6 1.166-1.27 1.627-2a9.494 9.494 0 0 0 1.1-3.9V10.6a5.827 5.827 0 1 1 11.646 0v3.293a9.493 9.493 0 0 0 1.1 3.9c.46.73 1.007 1.4 1.627 2H3.42ZM12 23.314a1.78 1.78 0 0 0 1.72-1.52h-3.507A1.78 1.78 0 0 0 12 23.314Z" fill="#424242"/><circle cx="18.456" cy="5.937" r="3.5" fill="#F99A0E" stroke="#fff"/></svg>